# xmcd CD database file generated by Grip 2.95
# 
# Track frame offsets:
#       225
#       21865
#       40804
#       51080
#       73165
#       78925
#       106855
#       135947
#       156796
#       160971
#       186887
#       209362
#       244159
# 
# Disc length: 3889 seconds
# 
# Revision: 3
# Processed by: cddbd v1.4b41PL1 Copyright (c) Steve Scherf et al.
# Submitted via: Grip 2.95
# 
DISCID=a90f2e0d
DTITLE=Lester Quitzau - So Here We Are
DYEAR=1900
DGENRE=
TTITLE0=Rollin' And Tumblin'
TTITLE1=Waiting
TTITLE2=Honey Bee
TTITLE3=So Here We Are
TTITLE4=Every Minute of Every Day
TTITLE5=Release Me
TTITLE6=Broken Heart
TTITLE7=Devil's Dues
TTITLE8=Every Minute of Every Day -pt2
TTITLE9=Home On The Range
TTITLE10=Time Takes Time
TTITLE11=Heart And Soul
TTITLE12=Bonus Track
EXTD=
EXTT0=
EXTT1=
EXTT2=
EXTT3=
EXTT4=
EXTT5=
EXTT6=
EXTT7=
EXTT8=
EXTT9=
EXTT10=
EXTT11=
EXTT12=
PLAYORDER=
